<svg xmlns="http://www.w3.org/2000/svg" version="1.1" xmlns:xlink="http://www.w3.org/1999/xlink" xmlns:svgjs="http://svgjs.com/svgjs" x="0" y="0" viewBox="0 0 512 512">
	<g>
		<path d="m400.033 263.206-.085 83.085a132.984 132.984 0 0 1-32.934 87.719c-13.182 15.1-19.519 32.115-19.365 52.013l.142 17.914a8 8 0 0 1-8 8.063H186.212a8 8 0 0 1-8-8.063l.142-17.915c.154-19.875-6.191-36.891-19.4-52.02a133.394 133.394 0 0 1-33.211-87.925l.057-70.577a35.669 35.669 0 0 1 35.556-35.546h4.289l.095-150.715a35.7 35.7 0 0 1 35.56-35.551h.068A35.632 35.632 0 0 1 236.93 89.3l-.075 113.978c.262-.16.514-.332.782-.486a38.208 38.208 0 0 1 37.6.03 32.942 32.942 0 0 1 9.215 7.89c6.864-7.728 17.028-11.7 27.126-11.7h.03c16.919.013 34.017 11.153 35.452 32.446.421-.268.836-.542 1.271-.793a34.491 34.491 0 0 1 34.4.11c11.005 6.366 17.312 18.187 17.302 32.431zM143.948 154.9a8 8 0 0 0 5.64-13.673 73.269 73.269 0 1 1 103.4-.052 8 8 0 0 0 11.292 11.336 89.3 89.3 0 1 0-125.975.062 7.975 7.975 0 0 0 5.643 2.327z">
		</path>
	</g>
</svg>
