<svg data-name="Layer 1" xmlns="http://www.w3.org/2000/svg" viewBox="0 0 139.61 180.17">
	<defs>
		<style>
			.generic-file{fill:#838f9f;}.cls-2{fill:#dae0ed;}
		</style>
	</defs>
	<path class="generic-file" d="M139.61,44.33V161.82a18.38,18.38,0,0,1-18.39,18.35H18.39A18.36,18.36,0,0,1,0,161.82V18.39A18.37,18.37,0,0,1,18.39,0H93.12Z" />
	<path class="cls-2" d="M135.37,47.1V157.47a17.27,17.27,0,0,1-17.27,17.24H21.5A17.25,17.25,0,0,1,4.23,157.47V22.73A17.25,17.25,0,0,1,21.5,5.46H91.7Z" />
	<path class="generic-file" d="M139.61,44.33V49.8H102.17a6,6,0,0,1-4.71-2.26l-5-6.18a6.09,6.09,0,0,1-1.34-3.8V0h2Z" />
</svg>
