<svg>
	<symbol id="solid-dollar-circle" xmlns="http://www.w3.org/2000/svg" version="1.1" xmlns:xlink="http://www.w3.org/1999/xlink" x="0" y="0" viewBox="0 0 499 499">
		<g>
			<path d="M243 0C108.8 0 0 108.8 0 243s108.8 243 243 243 243-108.8 243-243S377.2 0 243 0zm69.8 338.8c-10.6 12.9-24.4 21.6-40.5 26-7 1.9-10.2 5.6-9.8 12.9.3 7.2 0 14.3-.1 21.5 0 6.4-3.3 9.8-9.6 10-4.1.1-8.2.2-12.3.2-3.6 0-7.2 0-10.8-.1-6.8-.1-10-4-10-10.6-.1-5.2-.1-10.5-.1-15.7-.1-11.6-.5-12-11.6-13.8-14.2-2.3-28.2-5.5-41.2-11.8-10.2-5-11.3-7.5-8.4-18.3 2.2-8 4.4-16 6.9-23.9 1.8-5.8 3.5-8.4 6.6-8.4 1.8 0 4.1.9 7.2 2.5 14.4 7.5 29.7 11.7 45.8 13.7 2.7.3 5.4.5 8.1.5 7.5 0 14.8-1.4 21.9-4.5 17.9-7.8 20.7-28.5 5.6-40.9-5.1-4.2-11-7.3-17.1-10-15.7-6.9-32-12.1-46.8-21-24-14.4-39.2-34.1-37.4-63.3 2-33 20.7-53.6 51-64.6 12.5-4.5 12.6-4.4 12.6-17.4 0-4.4-.1-8.8.1-13.3.3-9.8 1.9-11.5 11.7-11.8H246c18.6 0 18.6.8 18.7 20.9.1 14.8.1 14.8 14.8 17.1 11.3 1.8 22 5.1 32.4 9.7 5.7 2.5 7.9 6.5 6.1 12.6-2.6 9-5.1 18.1-7.9 27-1.8 5.4-3.5 7.9-6.7 7.9-1.8 0-4-.7-6.8-2.1-14.4-7-29.5-10.4-45.3-10.4-2 0-4.1.1-6.1.2-4.7.3-9.3.9-13.7 2.8-15.6 6.8-18.1 24-4.8 34.6 6.7 5.4 14.4 9.2 22.3 12.5 13.8 5.7 27.6 11.2 40.7 18.4 41.2 23 52.4 75.3 23.1 110.9z">
			</path>
		</g>
	</symbol>
	<symbol id="solid-edit" xmlns="http://www.w3.org/2000/svg" version="1.1" xmlns:xlink="http://www.w3.org/1999/xlink" x="0" y="0" viewBox="0 0 24 24">
		<g>
			<path d="M23.04.95a2.884 2.884 0 0 0-4.03-.21l-8.82 8.83a1.033 1.033 0 0 0-.29.59l-.39 3.22c-.07.576.481 1.268 1.11 1.11l3.22-.39a1.033 1.033 0 0 0 .59-.29l8.82-8.83a2.857 2.857 0 0 0-.21-4.03z">
			</path>
			<path d="m14.09 16.08-3.23.4a3.044 3.044 0 0 1-3.34-3.35l.4-3.22a2.96 2.96 0 0 1 .85-1.75L13.92 3H3a3.009 3.009 0 0 0-3 3v15a3.009 3.009 0 0 0 3 3h14a3.009 3.009 0 0 0 3-3v-9.93l-4.16 4.16a2.961 2.961 0 0 1-1.75.85z">
			</path>
		</g>
	</symbol>
	<symbol id="solid-share" xmlns="http://www.w3.org/2000/svg" version="1.1" xmlns:xlink="http://www.w3.org/1999/xlink" x="0" y="0" viewBox="0 0 663 663">
		<g>
			<path d="M510 408c-45.135 0-84.558 23.588-107.202 58.956l-136.527-78.03c8.797-17.34 14.229-36.644 14.229-57.426 0-12.827-2.474-24.964-5.993-36.644l142.061-81.167C439.85 238.935 472.948 255 510 255c70.405 0 127.5-57.095 127.5-127.5S580.405 0 510 0 382.5 57.095 382.5 127.5c0 12.827 2.474 24.964 5.992 36.644l-142.06 81.192C223.15 220.065 190.051 204 153 204c-70.405 0-127.5 57.069-127.5 127.5C25.5 401.905 82.595 459 153 459c29.07 0 55.539-10.098 76.984-26.494l153.893 89.198c-.484 4.616-1.377 9.078-1.377 13.796 0 70.405 57.095 127.5 127.5 127.5s127.5-57.095 127.5-127.5S580.405 408 510 408z">
			</path>
		</g>
	</symbol>
</svg>
