<svg xmlns="http://www.w3.org/2000/svg" version="1.1" xmlns:xlink="http://www.w3.org/1999/xlink" viewBox="0 0 24 24" >
	<g>
		<path d="M12 2a2 2 0 0 0-2-2H2a2 2 0 0 0-2 2v9.604c-.034 1.081 1.289 1.79 2.171 1.162.091-.055 2.564-1.721 2.656-1.766H12V2ZM9.5 3.753h-.932c-.121 1.275-.617 2.731-1.607 3.866.663.403 1.49.665 2.539.665v1.253c-1.456 0-2.595-.418-3.488-1.053-.896.64-2.049 1.053-3.512 1.053V8.284c1.049 0 1.881-.258 2.545-.661A6.575 6.575 0 0 1 3.822 5.5h1.336c.204.468.487.92.847 1.325.818-.92 1.192-2.108 1.303-3.071H2.5V2.501h2.873V1.5h1.253v1h2.873v1.253ZM18 2h-4V0h4c1.654 0 3 1.346 3 3v3.006l1.499-1.508 1.414 1.414-2.506 2.507a1.991 1.991 0 0 1-2.812 0l-2.507-2.508 1.414-1.414 1.499 1.499V3c0-.552-.449-1-1-1Zm4 9h-8a2 2 0 0 0-2 2v9h7.173c.096.047 2.565 1.71 2.656 1.766.882.628 2.205-.082 2.171-1.162V13a2 2 0 0 0-2-2Zm-2.364 9.5-.389-1.7h-2.409l-.401 1.7H15l1.616-6.853c.271-1.486 2.63-1.519 2.898.049l1.559 6.804h-1.437Zm-1.498-6.537.787 3.437h-1.757l.811-3.437c.016-.082.142-.082.159 0Z">
		</path>
	</g>
</svg>
