<svg>
	<symbol id="hamburger" xmlns="http://www.w3.org/2000/svg" version="1.1" xmlns:xlink="http://www.w3.org/1999/xlink" xmlns:svgjs="http://svgjs.com/svgjs" viewBox="0 0 32 32">
		<g>
			<g xmlns="http://www.w3.org/2000/svg">
				<path d="m29 8h-26c-1.1045 0-2-.8955-2-2s.8955-2 2-2h26c1.1045 0 2 .8955 2 2s-.8955 2-2 2z">
				</path>
				<path d="m29 28h-26c-1.1045 0-2-.8955-2-2s.8955-2 2-2h26c1.1045 0 2 .8955 2 2s-.8955 2-2 2z">
				</path>
				<path d="m29 18h-26c-1.1045 0-2-.8955-2-2s.8955-2 2-2h26c1.1045 0 2 .8955 2 2s-.8955 2-2 2z">
				</path>
			</g>
		</g>
	</symbol>
	<symbol id="cross" xmlns="http://www.w3.org/2000/svg" version="1.1" xmlns:xlink="http://www.w3.org/1999/xlink" xmlns:svgjs="http://svgjs.com/svgjs" x="0" y="0" viewBox="0 0 512 512">
		<g>
			<g xmlns="http://www.w3.org/2000/svg" id="_02_User" data-name="02 User">
				<path d="m25 512a25 25 0 0 1 -17.68-42.68l462-462a25 25 0 0 1 35.36 35.36l-462 462a24.93 24.93 0 0 1 -17.68 7.32z">
				</path>
				<path d="m487 512a24.93 24.93 0 0 1 -17.68-7.32l-462-462a25 25 0 0 1 35.36-35.36l462 462a25 25 0 0 1 -17.68 42.68z">
				</path>
			</g>
		</g>
	</symbol>
	<symbol id="search" xmlns="http://www.w3.org/2000/svg" version="1.1" xmlns:xlink="http://www.w3.org/1999/xlink" viewBox="0 0 24 24">
		<g>
			<path d="m23.707 22.293-5.969-5.969a10.016 10.016 0 1 0-1.414 1.414l5.969 5.969a1 1 0 0 0 1.414-1.414ZM10 18a8 8 0 1 1 8-8 8.009 8.009 0 0 1-8 8Z">
			</path>
		</g>
	</symbol>
	<symbol id="v-dots" xmlns="http://www.w3.org/2000/svg" version="1.1" xmlns:xlink="http://www.w3.org/1999/xlink" x="0" y="0" viewBox="0 0 384 384">
		<g>
			<circle cx="192" cy="42.667" r="42.667">
			</circle>
			<circle cx="192" cy="192" r="42.667">
			</circle>
			<circle cx="192" cy="341.333" r="42.667">
			</circle>
		</g>
	</symbol>
	<symbol id="solid-more" xmlns="http://www.w3.org/2000/svg" version="1.1" xmlns:xlink="http://www.w3.org/1999/xlink" x="0" y="0" viewBox="0 0 32 32">
		<g transform="matrix(1.1899999999999997,0,0,1.1899999999999997,-3.0399999999999956,-3.0399999999999956)">
			<rect width="12" height="12" x="3" y="3" rx="3">
			</rect>
			<rect width="12" height="12" x="17" y="3" rx="3">
			</rect>
			<rect width="12" height="12" x="3" y="17" rx="3">
			</rect>
			<circle cx="23" cy="23" r="6">
			</circle>
		</g>
	</symbol>
	<symbol id="solid-home" xmlns="http://www.w3.org/2000/svg" version="1.1" xmlns:xlink="http://www.w3.org/1999/xlink" xmlns:svgjs="http://svgjs.com/svgjs" x="0" y="0" viewBox="0 0 512 512">
		<g>
			<path xmlns="http://www.w3.org/2000/svg" d="m498.195312 222.695312c-.011718-.011718-.023437-.023437-.035156-.035156l-208.855468-208.847656c-8.902344-8.90625-20.738282-13.8125-33.328126-13.8125-12.589843 0-24.425781 4.902344-33.332031 13.808594l-208.746093 208.742187c-.070313.070313-.140626.144531-.210938.214844-18.28125 18.386719-18.25 48.21875.089844 66.558594 8.378906 8.382812 19.445312 13.238281 31.277344 13.746093.480468.046876.964843.070313 1.453124.070313h8.324219v153.699219c0 30.414062 24.746094 55.160156 55.167969 55.160156h81.710938c8.28125 0 15-6.714844 15-15v-120.5c0-13.878906 11.289062-25.167969 25.167968-25.167969h48.195313c13.878906 0 25.167969 11.289063 25.167969 25.167969v120.5c0 8.285156 6.714843 15 15 15h81.710937c30.421875 0 55.167969-24.746094 55.167969-55.160156v-153.699219h7.71875c12.585937 0 24.421875-4.902344 33.332031-13.808594 18.359375-18.371093 18.367187-48.253906.023437-66.636719zm0 0">
			</path>
		</g>
	</symbol>
	<symbol id="solid-dashboard" xmlns="http://www.w3.org/2000/svg" version="1.1" xmlns:xlink="http://www.w3.org/1999/xlink" xmlns:svgjs="http://svgjs.com/svgjs" viewBox="0 0 64 64">
		<g>
			<g xmlns="http://www.w3.org/2000/svg" id="Dashboard">
				<rect height="28" rx="3" width="28" x="34" y="34">
				</rect>
				<rect height="28" rx="3" width="28" x="2" y="34">
				</rect>
				<rect height="28" rx="3" width="28" x="34" y="2">
				</rect>
				<rect height="28" rx="3" width="28" x="2" y="2">
				</rect>
			</g>
		</g>
	</symbol>
	<symbol id="solid-user" xmlns="http://www.w3.org/2000/svg" version="1.1" xmlns:xlink="http://www.w3.org/1999/xlink" xmlns:svgjs="http://svgjs.com/svgjs" viewBox="0 0 460.8 460.8">
		<g>
			<g xmlns="http://www.w3.org/2000/svg">
				<g>
					<g>
						<path d="M230.432,239.282c65.829,0,119.641-53.812,119.641-119.641C350.073,53.812,296.261,0,230.432,0     S110.792,53.812,110.792,119.641S164.604,239.282,230.432,239.282z">
						</path>
						<path d="M435.755,334.89c-3.135-7.837-7.314-15.151-12.016-21.943c-24.033-35.527-61.126-59.037-102.922-64.784     c-5.224-0.522-10.971,0.522-15.151,3.657c-21.943,16.196-48.065,24.555-75.233,24.555s-53.29-8.359-75.233-24.555     c-4.18-3.135-9.927-4.702-15.151-3.657c-41.796,5.747-79.412,29.257-102.922,64.784c-4.702,6.792-8.882,14.629-12.016,21.943     c-1.567,3.135-1.045,6.792,0.522,9.927c4.18,7.314,9.404,14.629,14.106,20.898c7.314,9.927,15.151,18.808,24.033,27.167     c7.314,7.314,15.673,14.106,24.033,20.898c41.273,30.825,90.906,47.02,142.106,47.02s100.833-16.196,142.106-47.02     c8.359-6.269,16.718-13.584,24.033-20.898c8.359-8.359,16.718-17.241,24.033-27.167c5.224-6.792,9.927-13.584,14.106-20.898     C436.8,341.682,437.322,338.024,435.755,334.89z">
						</path>
					</g>
				</g>
			</g>
		</g>
	</symbol>
	<symbol id="solid-eye" xmlns="http://www.w3.org/2000/svg" version="1.1" xmlns:xlink="http://www.w3.org/1999/xlink" viewBox="0 0 512.19 512.19">
		<g>
			<circle cx="256.095" cy="256.095" r="85.333">
			</circle>
			<path d="M496.543 201.034C463.455 147.146 388.191 56.735 256.095 56.735S48.735 147.146 15.647 201.034c-20.862 33.743-20.862 76.379 0 110.123 33.088 53.888 108.352 144.299 240.448 144.299s207.36-90.411 240.448-144.299c20.862-33.744 20.862-76.38 0-110.123zM256.095 384.095c-70.692 0-128-57.308-128-128s57.308-128 128-128 128 57.308 128 128c-.071 70.663-57.337 127.929-128 128z">
			</path>
		</g>
	</symbol>
	<symbol id="solid-eye-off" xmlns="http://www.w3.org/2000/svg" viewBox="0 0 24 24">
		<g>
			<g>
				<circle cx="12" cy="12" r="1.5">
				</circle>
				<path d="M15.29 18.12 14 16.78l-.07-.07-1.27-1.27a4.07 4.07 0 0 1-.61.06A3.5 3.5 0 0 1 8.5 12a4.07 4.07 0 0 1 .06-.61l-2-2L5 7.87a15.89 15.89 0 0 0-2.87 3.63 1 1 0 0 0 0 1c.63 1.09 4 6.5 9.89 6.5h.25a9.48 9.48 0 0 0 3.23-.67zM8.59 5.76l2.8 2.8A4.07 4.07 0 0 1 12 8.5a3.5 3.5 0 0 1 3.5 3.5 4.07 4.07 0 0 1-.06.61l2.68 2.68.84.84a15.89 15.89 0 0 0 2.91-3.63 1 1 0 0 0 0-1c-.64-1.11-4.16-6.68-10.14-6.5a9.48 9.48 0 0 0-3.23.67zm12.12 13.53L19.41 18l-2-2-9.52-9.53L6.42 5 4.71 3.29a1 1 0 0 0-1.42 1.42L5.53 7l1.75 1.7 7.31 7.3.07.07L16 17.41l.59.59 2.7 2.71a1 1 0 0 0 1.42 0 1 1 0 0 0 0-1.42z">
				</path>
			</g>
		</g>
	</symbol>
	<symbol id="solid-info" xmlns="http://www.w3.org/2000/svg" version="1.1" xmlns:xlink="http://www.w3.org/1999/xlink" xmlns:svgjs="http://svgjs.com/svgjs" x="0" y="0" viewBox="0 0 524.235 524.235">
		<g>
			<path d="m262.118 0c-144.53 0-262.118 117.588-262.118 262.118s117.588 262.118 262.118 262.118 262.118-117.588 262.118-262.118-117.589-262.118-262.118-262.118zm17.05 417.639c-12.453 2.076-37.232 7.261-49.815 8.303-10.651.882-20.702-5.215-26.829-13.967-6.143-8.751-7.615-19.95-3.968-29.997l49.547-136.242h-51.515c-.044-28.389 21.25-49.263 48.485-57.274 12.997-3.824 37.212-9.057 49.809-8.255 7.547.48 20.702 5.215 26.829 13.967 6.143 8.751 7.615 19.95 3.968 29.997l-49.547 136.242h51.499c.01 28.356-20.49 52.564-48.463 57.226zm15.714-253.815c-18.096 0-32.765-14.671-32.765-32.765 0-18.096 14.669-32.765 32.765-32.765s32.765 14.669 32.765 32.765c0 18.095-14.668 32.765-32.765 32.765z">
			</path>
		</g>
	</symbol>
	<symbol id="solid-pencil" xmlns="http://www.w3.org/2000/svg" version="1.1" xmlns:xlink="http://www.w3.org/1999/xlink" viewBox="0 0 24 24">
		<g>
			<path d="M22.987 5.452c-.028-.177-.312-1.767-1.464-2.928-1.157-1.132-2.753-1.412-2.931-1.44a.989.989 0 0 0-.682.137c-.071.044-1.114.697-3.173 2.438 1.059.374 2.428 1.023 3.538 2.109 1.114 1.09 1.78 2.431 2.162 3.471 1.72-2.01 2.367-3.028 2.41-3.098.128-.205.178-.45.14-.689ZM12.95 5.223a108.333 108.333 0 0 0-3.752 3.564c-6.063 6.02-7.653 8.427-7.718 8.526-.091.14-.146.301-.159.467l-.319 4.071A1.001 1.001 0 0 0 2 22.929c.025 0 .051 0 .077-.003l4.101-.316c.165-.013.324-.066.463-.155.1-.064 2.523-1.643 8.585-7.662a108.255 108.255 0 0 0 3.655-3.797c-.151-.649-.678-2.501-2.005-3.798-1.346-1.317-3.283-1.833-3.927-1.975Z">
			</path>
		</g>
	</symbol>
	<symbol id="solid-paper-clip" xmlns="http://www.w3.org/2000/svg" version="1.1" xmlns:xlink="http://www.w3.org/1999/xlink" x="0" y="0" viewBox="0 0 512 512">
		<g>
			<path d="M436.681 48.568c-64.757-64.757-169.748-64.757-234.505 0l-9.782 9.782L35.597 215.146c-11.794 11.794-11.794 30.915 0 42.709 11.787 11.787 30.907 11.787 42.702-.007L244.878 91.27c41.168-41.168 107.919-41.167 149.093.007 41.168 41.168 41.168 107.918 0 149.086L200.375 433.96c-23.518 23.518-61.645 23.518-85.164 0-23.511-23.512-23.511-61.639.007-85.157l42.64-42.64 123.844-123.844c5.862-5.862 15.365-5.862 21.228 0 5.862 5.862 5.862 15.365 0 21.228L163.464 343.012c-11.794 11.794-11.794 30.914-.007 42.702 11.794 11.794 30.915 11.794 42.709 0l139.466-139.466c29.451-29.451 29.451-77.195.007-106.639-29.451-29.451-77.195-29.451-106.646 0L72.508 306.094c-47.107 47.107-47.107 123.475-.007 170.576 47.107 47.107 123.475 47.107 170.583 0L436.68 283.073c64.758-64.757 64.758-169.749.001-234.505z">
			</path>
		</g>
	</symbol>
	<symbol id="solid-trash" viewBox="0 0 22 24" xmlns="http://www.w3.org/2000/svg">
		<path d="M21 4H16.899C16.434 1.721 14.415 0 12 0H10C7.586 0 5.566 1.721 5.101 4H1C0.448 4 0 4.447 0 5C0 5.553 0.448 6 1 6H1.86L3.156 19.479C3.404 22.057 5.544 24 8.133 24H13.86C16.453 24 18.593 22.053 18.838 19.472L20.114 6H20.999C21.551 6 21.999 5.553 21.999 5C21.999 4.447 21.552 4 21 4ZM10 2H12C13.302 2 14.402 2.839 14.816 4H7.185C7.599 2.839 8.699 2 10.001 2H10Z" />
	</symbol>
	<symbol id="solid-exit" xmlns="http://www.w3.org/2000/svg" version="1.1" xmlns:xlink="http://www.w3.org/1999/xlink" viewBox="0 0 24 24">
		<g>
			<path d="M24 15c0 .617-.24 1.197-.678 1.634l-2.072 2.073a.997.997 0 0 1-1.414 0 .999.999 0 0 1 0-1.414L21.128 16H15a1 1 0 1 1 0-2h6.128l-1.292-1.293a.999.999 0 1 1 1.414-1.414l2.073 2.074c.437.436.677 1.016.677 1.633Zm-10-4V6c0-1.103-.897-2-2-2v17.999h1a1 1 0 0 0 1-1v-2a1 1 0 1 1 2 0v2c0 1.654-1.346 3-3 3H3c-1.654 0-3-1.346-3-3V5.621A5.013 5.013 0 0 1 4.019.718L7.216.079a3.985 3.985 0 0 1 3.321.829c.375.307.665.685.902 1.092H12c2.206 0 4 1.794 4 4v5a1 1 0 1 1-2 0Zm-5 1.5a1.5 1.5 0 1 0-3.001.001A1.5 1.5 0 0 0 9 12.5Z">
			</path>
		</g>
	</symbol>
	<symbol id="solid-book" xmlns="http://www.w3.org/2000/svg" version="1.1" xmlns:xlink="http://www.w3.org/1999/xlink" xmlns:svgjs="http://svgjs.com/svgjs" viewBox="0 0 512 512">
		<g>
			<g xmlns="http://www.w3.org/2000/svg">
				<g>
					<path d="M448.8,0h-337.4c-34.848,0-63.2,28.352-63.2,63.2v385.601c0,34.847,28.351,63.199,63.199,63.199h337.4    c8.284,0,15-6.717,15-15v-96.4V15C463.8,6.716,457.085,0,448.8,0z M159.6,96.399h192.801c8.284,0,15,6.716,15,15s-6.716,15-15,15    H159.6c-8.284,0-15-6.716-15-15S151.315,96.399,159.6,96.399z M111.401,482c-18.307,0-33.2-14.894-33.2-33.199    c0-0.572,0.015-1.142,0.043-1.706c0.891-17.518,15.423-31.495,33.156-31.495h322.4V482H111.401z">
					</path>
				</g>
			</g>
		</g>
	</symbol>
	<symbol id="solid-logout" xmlns="http://www.w3.org/2000/svg" version="1.1" xmlns:xlink="http://www.w3.org/1999/xlink" xmlns:svgjs="http://svgjs.com/svgjs" x="0" y="0" viewBox="0 0 512.00533 512">
		<g>
			<path xmlns="http://www.w3.org/2000/svg" d="m320 277.335938c-11.796875 0-21.332031 9.558593-21.332031 21.332031v85.335937c0 11.753906-9.558594 21.332032-21.335938 21.332032h-64v-320c0-18.21875-11.605469-34.496094-29.054687-40.554688l-6.316406-2.113281h99.371093c11.777344 0 21.335938 9.578125 21.335938 21.335937v64c0 11.773438 9.535156 21.332032 21.332031 21.332032s21.332031-9.558594 21.332031-21.332032v-64c0-35.285156-28.714843-63.99999975-64-63.99999975h-229.332031c-.8125 0-1.492188.36328175-2.28125.46874975-1.027344-.085937-2.007812-.46874975-3.050781-.46874975-23.53125 0-42.667969 19.13281275-42.667969 42.66406275v384c0 18.21875 11.605469 34.496093 29.054688 40.554687l128.386718 42.796875c4.351563 1.34375 8.679688 1.984375 13.226563 1.984375 23.53125 0 42.664062-19.136718 42.664062-42.667968v-21.332032h64c35.285157 0 64-28.714844 64-64v-85.335937c0-11.773438-9.535156-21.332031-21.332031-21.332031zm0 0">
			</path>
			<path xmlns="http://www.w3.org/2000/svg" d="m505.75 198.253906-85.335938-85.332031c-6.097656-6.101563-15.273437-7.9375-23.25-4.632813-7.957031 3.308594-13.164062 11.09375-13.164062 19.714844v64h-85.332031c-11.777344 0-21.335938 9.554688-21.335938 21.332032 0 11.777343 9.558594 21.332031 21.335938 21.332031h85.332031v64c0 8.621093 5.207031 16.40625 13.164062 19.714843 7.976563 3.304688 17.152344 1.46875 23.25-4.628906l85.335938-85.335937c8.339844-8.339844 8.339844-21.824219 0-30.164063zm0 0">
			</path>
		</g>
	</symbol>
	<symbol id="solid-gear" xmlns="http://www.w3.org/2000/svg" version="1.1" xmlns:xlink="http://www.w3.org/1999/xlink" xmlns:svgjs="http://svgjs.com/svgjs" x="0" y="0" viewBox="0 0 32 32">
		<g>
			<g id="Layer_2" data-name="Layer 2">
				<path d="m29.21 11.84a3.92 3.92 0 0 1 -3.09-5.3 1.84 1.84 0 0 0 -.55-2.07 14.75 14.75 0 0 0 -4.4-2.55 1.85 1.85 0 0 0 -2.09.58 3.91 3.91 0 0 1 -6.16 0 1.85 1.85 0 0 0 -2.09-.58 14.82 14.82 0 0 0 -4.1 2.3 1.86 1.86 0 0 0 -.58 2.13 3.9 3.9 0 0 1 -3.25 5.36 1.85 1.85 0 0 0 -1.62 1.49 14.14 14.14 0 0 0 -.28 2.8 14.32 14.32 0 0 0 .19 2.35 1.85 1.85 0 0 0 1.63 1.55 3.9 3.9 0 0 1 3.18 5.51 1.82 1.82 0 0 0 .51 2.18 14.86 14.86 0 0 0 4.36 2.51 2 2 0 0 0 .63.11 1.84 1.84 0 0 0 1.5-.78 3.87 3.87 0 0 1 3.2-1.68 3.92 3.92 0 0 1 3.14 1.58 1.84 1.84 0 0 0 2.16.61 15 15 0 0 0 4-2.39 1.85 1.85 0 0 0 .54-2.11 3.9 3.9 0 0 1 3.13-5.39 1.85 1.85 0 0 0 1.57-1.52 14.5 14.5 0 0 0 .26-2.53 14.35 14.35 0 0 0 -.25-2.67 1.83 1.83 0 0 0 -1.54-1.49zm-8.21 4.16a5 5 0 1 1 -5-5 5 5 0 0 1 5 5z">
				</path>
			</g>
		</g>
	</symbol>
	<symbol id="solid-arrow-back" xmlns="http://www.w3.org/2000/svg" viewBox="0 0 24 24">
		<g data-name="Layer 2">
			<g data-name="arrow-back">
				<rect width="24" height="24" opacity="0" transform="rotate(90 12 12)">
				</rect>
				<path d="M19 11H7.14l3.63-4.36a1 1 0 1 0-1.54-1.28l-5 6a1.19 1.19 0 0 0-.09.15c0 .05 0 .08-.07.13A1 1 0 0 0 4 12a1 1 0 0 0 .07.36c0 .05 0 .08.07.13a1.19 1.19 0 0 0 .09.15l5 6A1 1 0 0 0 10 19a1 1 0 0 0 .64-.23 1 1 0 0 0 .13-1.41L7.14 13H19a1 1 0 0 0 0-2z">
				</path>
			</g>
		</g>
	</symbol>
	<symbol id="solid-arrow-left" xmlns="http://www.w3.org/2000/svg" version="1.1" xmlns:xlink="http://www.w3.org/1999/xlink" xmlns:svgjs="http://svgjs.com/svgjs" viewBox="0 0 465.841 465.841">
		<g>
			<g xmlns="http://www.w3.org/2000/svg">
				<g>
					<path d="M437.896,204.974c-0.001,0-0.003,0-0.004,0H120.239c-5.89-0.083-10.599-4.925-10.516-10.815    c0.039-2.74,1.13-5.361,3.049-7.318l97.28-97.067c10.901-10.98,10.901-28.7,0-39.68c-11.073-10.674-28.607-10.674-39.68,0    L7.172,213.08c-1.288,1.295-2.432,2.726-3.413,4.267c-0.937,1.517-1.792,3.084-2.56,4.693l-1.067,3.2    c-0.04,0.782-0.04,1.565,0,2.347c-0.169,1.774-0.169,3.56,0,5.333c-0.176,1.845-0.176,3.702,0,5.547v2.347v2.56    c0.454,1.192,1.026,2.335,1.707,3.413l1.067,2.133c0.956,1.302,2.027,2.516,3.2,3.627l163.2,163.2    c11.073,10.674,28.607,10.674,39.68,0c10.877-10.907,10.877-28.559,0-39.467L112.772,279c-4.124-4.206-4.058-10.96,0.149-15.084    c1.957-1.919,4.577-3.011,7.318-3.049h317.653c15.435,0.001,27.948-12.51,27.949-27.945    C465.842,217.488,453.33,204.975,437.896,204.974z">
					</path>
				</g>
			</g>
		</g>
	</symbol>
	<symbol id="solid-chevron-right" xmlns="http://www.w3.org/2000/svg" version="1.1" xmlns:xlink="http://www.w3.org/1999/xlink" viewBox="0 0 24 24">
		<g transform="matrix(1.5000000000000007,0,0,1.5000000000000007,-5.896446943283092,-6.003016710281381)">
			<path fill-rule="evenodd" d="M8.043 19.207a1 1 0 0 1 0-1.414L13.836 12 8.043 6.207a1 1 0 0 1 1.414-1.414l5.793 5.793a2 2 0 0 1 0 2.828l-5.793 5.793a1 1 0 0 1-1.414 0z">
			</path>
		</g>
	</symbol>
	<symbol id="solid-caret" xmlns="http://www.w3.org/2000/svg" version="1.1" xmlns:xlink="http://www.w3.org/1999/xlink" x="0" y="0" viewBox="0 0 512 389.97">
		<g>
			<g>
				<path d="m503.06 75.7-207.87 294a48 48 0 0 1-78.38 0L8.94 75.7A47.22 47.22 0 0 1 5.5 25.93 47.22 47.22 0 0 1 48.12 0h415.76a47.22 47.22 0 0 1 42.62 25.93 47.22 47.22 0 0 1-3.44 49.77z">
				</path>
			</g>
		</g>
	</symbol>
	<symbol id="solid-tick" xmlns="http://www.w3.org/2000/svg" version="1.1" xmlns:xlink="http://www.w3.org/1999/xlink" xmlns:svgjs="http://svgjs.com/svgjs" x="0" y="0" viewBox="0 0 511.985 511.985">
		<g>
			<path d="M500.088 83.681c-15.841-15.862-41.564-15.852-57.426 0L184.205 342.148 69.332 227.276c-15.862-15.862-41.574-15.862-57.436 0-15.862 15.862-15.862 41.574 0 57.436l143.585 143.585c7.926 7.926 18.319 11.899 28.713 11.899 10.394 0 20.797-3.963 28.723-11.899l287.171-287.181c15.862-15.851 15.862-41.574 0-57.435z">
			</path>
		</g>
	</symbol>
	<symbol id="solid-code" xmlns="http://www.w3.org/2000/svg" version="1.1" xmlns:xlink="http://www.w3.org/1999/xlink" xmlns:svgjs="http://svgjs.com/svgjs" x="0" y="0" viewBox="0 0 512 512">
		<g>
			<path d="M314.8 78.7c-13.4-4.5-27.7 2.8-32.1 16.1L181.1 399.6c-4.4 13.3 3.5 26 16.1 32.1 12.9 6.3 27.2 2.7 32.1-16.1l101.6-304.8c4.4-13.2-2.8-27.6-16.1-32.1zM498.4 233.9l-127-81.8c-11.8-7.6-27.5-4.2-35.1 7.6s-4.2 27.5 7.6 35.1l93.9 60.5-93.9 60.5c-11.8 7.6-14.1 22.7-7.6 35.1 6.6 12.6 20.3 14.6 35.1 7.6l127-81.9c7.3-4.7 11.6-12.7 11.6-21.3 0-8.7-4.4-16.7-11.6-21.4zM168.2 315.8l-93.9-60.5 93.9-60.5c11.8-7.6 15.2-23.3 7.6-35.1s-23.3-15.2-35.1-7.6l-127 81.8C6.4 238.6 2 246.6 2 255.2s4.4 16.7 11.6 21.3l127 81.9c20.2 10.5 28.9 2.6 35.1-7.6 7.4-11.9 4.2-27.5-7.5-35z">
			</path>
		</g>
	</symbol>
	<symbol id="solid-cloud-link" xmlns="http://www.w3.org/2000/svg" version="1.1" xmlns:xlink="http://www.w3.org/1999/xlink" xmlns:svgjs="http://svgjs.com/svgjs" x="0" y="0" viewBox="0 0 64 64">
		<g>
			<path d="M51.83 20.75c-1.631-3.03-4.744-5.02-8.247-5.23-2.222-4.29-6.695-7.02-11.56-7.02s-9.327 2.73-11.56 7.02c-3.412.19-6.545 2.15-8.196 5.13A9.997 9.997 0 0 0 4 30.5c0 5.51 4.494 10 10.008 10h9.599l-2.563 2.56c-.6-.36-1.29-.56-2.031-.56-5.283.156-5.299 7.838 0 8a4 4 0 0 0 4.003-4c0-.73-.2-1.43-.56-2.02l4.273-4.27c.3-.277.308-.738.29-1.12V34.5c.027-1.312 1.975-1.315 2.002 0v6h2.002v7.13c-4.478 1.18-3.686 7.82 1 7.87a4 4 0 0 0 4.004-4c0-1.86-1.271-3.43-3.003-3.87V30.5c.024-1.308 1.977-1.318 2.002 0v10H37.608l3.984 3.98a3.88 3.88 0 0 0-.56 2.02c.155 5.28 7.845 5.292 8.006 0a4 4 0 0 0-4.004-4c-.74 0-1.43.2-2.031.56-.931-.915-3.074-3.082-3.974-3.97V34.5c.022-1.31 1.979-1.316 2.002 0v3.76l2.232 2.24h6.776c12.134-.287 13.714-17.497 1.791-19.75z">
			</path>
		</g>
	</symbol>
	<symbol id="solid-socket" xmlns="http://www.w3.org/2000/svg" version="1.1" xmlns:xlink="http://www.w3.org/1999/xlink" xmlns:svgjs="http://svgjs.com/svgjs" x="0" y="0" viewBox="0 0 512 512">
		<g>
			<path d="M297.448 279.808c-5.533-5.532-14.505-5.532-20.038.001l-31.873 31.873-45.219-45.219 31.873-31.874c5.534-5.534 5.534-14.506 0-20.039-5.533-5.534-14.506-5.534-20.039 0l-31.873 31.874-25.485-25.485c-5.533-5.534-14.506-5.534-20.039 0l-56.36 56.36c-39.275 39.274-41.73 101.64-7.364 143.801-.46.358-.909.738-1.332 1.161l-65.548 65.55c-5.534 5.533-5.534 14.506 0 20.039A14.124 14.124 0 0 0 14.17 512c3.626 0 7.253-1.384 10.019-4.15l65.549-65.549a14.21 14.21 0 0 0 1.161-1.332c19.675 16.037 43.75 24.055 67.825 24.055 27.515 0 55.03-10.473 75.976-31.42l56.36-56.36c5.534-5.533 5.534-14.506 0-20.039l-25.485-25.485 31.873-31.873c5.534-5.533 5.534-14.506 0-20.039zm-82.637 89.533a9.42 9.42 0 0 1-6.68 2.767 9.42 9.42 0 0 1-6.68-2.767l-58.792-58.792a9.447 9.447 0 0 1 13.36-13.36l58.792 58.792a9.447 9.447 0 0 1 0 13.36zM507.85 24.19c5.534-5.533 5.534-14.505 0-20.039-5.532-5.534-14.505-5.534-20.039 0l-65.549 65.548c-.423.422-.801.87-1.159 1.33-19.112-15.613-42.816-24.104-67.827-24.104-28.7 0-55.682 11.177-75.976 31.471l-56.36 56.36c-5.534 5.534-5.534 14.505 0 20.039L357.206 291.06a14.165 14.165 0 0 0 20.038 0l56.36-56.36c20.294-20.294 31.47-47.276 31.47-75.976 0-25.011-8.49-48.715-24.104-67.828a14.44 14.44 0 0 0 1.33-1.159l65.55-65.547zM370.724 213.428a9.416 9.416 0 0 1-6.68 2.767 9.416 9.416 0 0 1-6.68-2.767l-58.791-58.791a9.447 9.447 0 0 1 13.36-13.36l58.791 58.791c3.689 3.689 3.689 9.672 0 13.36z">
			</path>
		</g>
	</symbol>
	<symbol id="solid-document" xmlns="http://www.w3.org/2000/svg" version="1.1" xmlns:xlink="http://www.w3.org/1999/xlink" xmlns:svgjs="http://svgjs.com/svgjs" x="0" y="0" viewBox="0 0 512 512">
		<g>
			<path d="M330 150c-19.299 0-35-15.701-35-35V0H116C85.673 0 61 24.673 61 55v402c0 30.327 24.673 55 55 55h280c30.327 0 55-24.673 55-55V150zM143 360h72.72c8.284 0 15 6.716 15 15s-6.716 15-15 15H143c-8.284 0-15-6.716-15-15s6.716-15 15-15zm-15-65c0-8.284 6.716-15 15-15h220c8.284 0 15 6.716 15 15s-6.716 15-15 15H143c-8.284 0-15-6.716-15-15zm235-95c8.284 0 15 6.716 15 15s-6.716 15-15 15H143c-8.284 0-15-6.716-15-15s6.716-15 15-15z">
			</path>
			<path d="M325 115c0 2.757 2.243 5 5 5h114.314a54.866 54.866 0 0 0-10.515-13.732l-96.423-91.222a55.137 55.137 0 0 0-12.375-8.825V115z">
			</path>
		</g>
	</symbol>
	<symbol id="solid-document-search" xmlns="http://www.w3.org/2000/svg" version="1.1" xmlns:xlink="http://www.w3.org/1999/xlink" xmlns:svgjs="http://svgjs.com/svgjs" x="0" y="0" viewBox="0 0 24 24">
		<g>
			<path d="M14.25 0H2.75C1.23 0 0 1.23 0 2.75v15.5C0 19.77 1.23 21 2.75 21h8.14a7.138 7.138 0 0 1-1.39-4.25c0-4 3.25-7.25 7.25-7.25.08 0 .17 0 .25.01V2.75C17 1.23 15.77 0 14.25 0zM4 4h4c.55 0 1 .45 1 1s-.45 1-1 1H4c-.55 0-1-.45-1-1s.45-1 1-1zm5 10H4c-.55 0-1-.45-1-1s.45-1 1-1h5c.55 0 1 .45 1 1s-.45 1-1 1zm4-4H4c-.55 0-1-.45-1-1s.45-1 1-1h9c.55 0 1 .45 1 1s-.45 1-1 1z">
			</path>
			<path d="M16.75 22c-2.895 0-5.25-2.355-5.25-5.25s2.355-5.25 5.25-5.25S22 13.855 22 16.75 19.645 22 16.75 22zm0-8.5c-1.792 0-3.25 1.458-3.25 3.25S14.958 20 16.75 20 20 18.542 20 16.75s-1.458-3.25-3.25-3.25z">
			</path>
			<path d="M23 24a.997.997 0 0 1-.707-.293l-3.25-3.25a.999.999 0 1 1 1.414-1.414l3.25 3.25A.999.999 0 0 1 23 24z">
			</path>
		</g>
	</symbol>
	<symbol id="solid-give-cash" xmlns="http://www.w3.org/2000/svg" version="1.1" xmlns:xlink="http://www.w3.org/1999/xlink" xmlns:svgjs="http://svgjs.com/svgjs" x="0" y="0" viewBox="0 0 64 64">
		<g>
			<g data-name="Cash payment">
				<path d="M49.169 41.902 37.484 46.97a5.934 5.934 0 0 1 .098 1.04 6.045 6.045 0 0 1-6.07 6.007h-10.68a1 1 0 0 1 0-2h10.68a4.006 4.006 0 1 0 0-8.011h-8.828a6.108 6.108 0 0 1-2.87-.444A24.634 24.634 0 0 0 10 41.036V39a1 1 0 0 0-1-1H3a1 1 0 0 0-1 1v22a1 1 0 0 0 1 1h6a1 1 0 0 0 1-1v-1.577S27.1 61 27.45 61a5.455 5.455 0 0 0 2.96-.855l22.048-12.329a3.359 3.359 0 0 0 1.185-4.324 3.445 3.445 0 0 0-4.474-1.589ZM18.874 21A4.015 4.015 0 0 1 16 23.873v3.254A4.015 4.015 0 0 1 18.874 30h22.252A4.015 4.015 0 0 1 44 27.127v-3.253a3.966 3.966 0 0 1-1.735-.98l-2.227 2.227a6.146 6.146 0 0 1-4.194 1.711 5.797 5.797 0 0 1-4.025-1.688A5.548 5.548 0 0 1 30.075 21Z">
				</path>
				<path d="M50 18.678a7.215 7.215 0 0 1-3.482-.037l-2.841 2.841A1.986 1.986 0 0 0 45 22a1 1 0 0 1 1 1v5a1 1 0 0 1-1 1 2.002 2.002 0 0 0-2 2 1 1 0 0 1-1 1H18a1 1 0 0 1-1-1 2.002 2.002 0 0 0-2-2 1 1 0 0 1-1-1v-5a1 1 0 0 1 1-1 2.002 2.002 0 0 0 2-2 1 1 0 0 1 1-1h12.474a6.601 6.601 0 0 1 1.479-2.279L33.674 15H11a1 1 0 0 0-1 1v19a1 1 0 0 0 1 1h38a1 1 0 0 0 1-1Z">
				</path>
				<path d="M61 2h-4a1 1 0 0 0-1 1v1H40.416a6.789 6.789 0 0 0-4.832 2.001L28.586 13h7.088l3.121-3.121a1 1 0 0 1 1.414 1.414l-6.88 6.88a4.147 4.147 0 0 0-1.23 2.376 3.608 3.608 0 0 0 1.087 3.135 3.891 3.891 0 0 0 5.437.023l7.382-7.38a5.595 5.595 0 0 0 5.498-.379 1 1 0 1 1 1.005 1.729c-.169.098-.338.182-.508.268v8.724a21.869 21.869 0 0 0 4-2.428V25a1 1 0 0 0 1 1h4a1 1 0 0 0 1-1V3a1 1 0 0 0-1-1Z">
				</path>
			</g>
		</g>
	</symbol>
	<symbol id="solid-plus" xmlns="http://www.w3.org/2000/svg" version="1.1" xmlns:xlink="http://www.w3.org/1999/xlink" xmlns:svgjs="http://svgjs.com/svgjs" x="0" y="0" viewBox="0 0 448 448">
		<g>
			<path d="M408 184H272a8 8 0 0 1-8-8V40c0-22.09-17.91-40-40-40s-40 17.91-40 40v136a8 8 0 0 1-8 8H40c-22.09 0-40 17.91-40 40s17.91 40 40 40h136a8 8 0 0 1 8 8v136c0 22.09 17.91 40 40 40s40-17.91 40-40V272a8 8 0 0 1 8-8h136c22.09 0 40-17.91 40-40s-17.91-40-40-40zm0 0">
			</path>
		</g>
	</symbol>
	<symbol id="solid-plus-circle" xmlns="http://www.w3.org/2000/svg" version="1.1" xmlns:xlink="http://www.w3.org/1999/xlink" xmlns:svgjs="http://svgjs.com/svgjs" x="0" y="0" viewBox="0 0 512 512">
		<g>
			<path d="M256 0C115.39 0 0 115.39 0 256s115.39 256 256 256 256-115.39 256-256S396.61 0 256 0zm150 286H286v120h-60V286H106v-60h120V106h60v120h120v60z">
			</path>
		</g>
	</symbol>
	<symbol id="solid-minus" xmlns="http://www.w3.org/2000/svg" version="1.1" xmlns:xlink="http://www.w3.org/1999/xlink" xmlns:svgjs="http://svgjs.com/svgjs" x="0" y="0" viewBox="0 0 124 124">
		<g>
			<path d="M112 50H12C5.4 50 0 55.4 0 62s5.4 12 12 12h100c6.6 0 12-5.4 12-12s-5.4-12-12-12z">
			</path>
		</g>
	</symbol>
	<symbol id="solid-recycle" xmlns="http://www.w3.org/2000/svg" version="1.1" xmlns:xlink="http://www.w3.org/1999/xlink" xmlns:svgjs="http://svgjs.com/svgjs" x="0" y="0" viewBox="0 0 512.449 512.449">
		<g>
			<path d="M152.083 286.805c7.109-8.155 1.318-20.888-9.501-20.888H110.19a147.458 147.458 0 0 1-.329-9.692c0-80.706 65.658-146.364 146.363-146.364 38.784 0 74.087 15.168 100.304 39.877l45.676-53.435c-39.984-36.577-91.44-56.612-145.98-56.612-57.838 0-112.214 22.524-153.112 63.421-40.897 40.898-63.421 95.274-63.421 153.112 0 3.243.081 6.473.222 9.692H12.629c-10.819 0-16.611 12.733-9.501 20.888l61.549 70.6 12.928 14.829 46.416-53.242zM509.321 245.614l-45.907-52.658-28.57-32.771-40.791 46.789-33.686 38.64c-7.109 8.155-1.318 20.888 9.501 20.888h32.354c-5.293 75.928-68.748 136.086-145.997 136.086-33.721 0-64.811-11.469-89.586-30.703l-45.679 53.439c38.267 30.731 85.479 47.434 135.266 47.434 57.838 0 112.214-22.523 153.112-63.421 38.466-38.466 60.672-88.856 63.177-142.834h27.306c10.818-.001 16.609-12.734 9.5-20.889z">
			</path>
		</g>
	</symbol>
	<symbol id="solid-schedule" xmlns="http://www.w3.org/2000/svg" version="1.1" xmlns:xlink="http://www.w3.org/1999/xlink" xmlns:svgjs="http://svgjs.com/svgjs" x="0" y="0" viewBox="0 0 512 512">
		<g>
			<path d="M450 85c0-30.327-24.673-55-55-55h-11v45c0 8.284-6.716 15-15 15s-15-6.716-15-15V30h-66v45c0 8.284-6.716 15-15 15s-15-6.716-15-15V30h-66v45c0 8.284-6.716 15-15 15s-15-6.716-15-15V30H96v45c0 8.284-6.716 15-15 15s-15-6.716-15-15V30H55C24.673 30 0 54.673 0 85v45h450zM96 15c0-8.284-6.716-15-15-15S66 6.716 66 15v15h30zM384 15c0-8.284-6.716-15-15-15s-15 6.716-15 15v15h30zM288 15c0-8.284-6.716-15-15-15s-15 6.716-15 15v15h30zM192 15c0-8.284-6.716-15-15-15s-15 6.716-15 15v15h30zM402 262c16.854 0 33.022 2.995 48 8.478V160H0v225c0 24.813 20.187 45 45 45h219.815A140.132 140.132 0 0 1 262 402c0-77.196 62.804-140 140-140zm-56-49.5h25c8.284 0 15 6.716 15 15s-6.716 15-15 15h-25c-8.284 0-15-6.716-15-15s6.716-15 15-15zm-89 0h25c8.284 0 15 6.716 15 15s-6.716 15-15 15h-25c-8.284 0-15-6.716-15-15s6.716-15 15-15zm-153 165H79c-8.284 0-15-6.716-15-15s6.716-15 15-15h25c8.284 0 15 6.716 15 15s-6.716 15-15 15zm0-67.5H79c-8.284 0-15-6.716-15-15s6.716-15 15-15h25c8.284 0 15 6.716 15 15s-6.716 15-15 15zm89 67.5h-25c-8.284 0-15-6.716-15-15s6.716-15 15-15h25c8.284 0 15 6.716 15 15s-6.716 15-15 15zm0-67.5h-25c-8.284 0-15-6.716-15-15s6.716-15 15-15h25c8.284 0 15 6.716 15 15s-6.716 15-15 15zm0-67.5h-25c-8.284 0-15-6.716-15-15s6.716-15 15-15h25c8.284 0 15 6.716 15 15s-6.716 15-15 15zm49 52.5c0-8.284 6.716-15 15-15h25c8.284 0 15 6.716 15 15s-6.716 15-15 15h-25c-8.284 0-15-6.716-15-15z">
			</path>
			<path d="M402 292c-60.654 0-110 49.346-110 110s49.346 110 110 110 110-49.346 110-110-49.346-110-110-110zm50 125h-50c-8.284 0-15-6.716-15-15v-50c0-8.284 6.716-15 15-15s15 6.716 15 15v35h35c8.284 0 15 6.716 15 15s-6.716 15-15 15z">
			</path>
		</g>
	</symbol>
	<symbol id="solid-generate" xmlns="http://www.w3.org/2000/svg" version="1.1" xmlns:xlink="http://www.w3.org/1999/xlink" xmlns:svgjs="http://svgjs.com/svgjs" x="0" y="0" viewBox="0 0 508.471 508.471">
		<g>
			<path d="m-.033 441.976 214.927-214.928 66.45 66.45L66.417 508.427zM321.02 120.98l-84.85 84.861 66.46 66.46 84.86-84.85zM149.21 206.521l36.508-66.752 66.752-36.508-66.752-36.508L149.21.001l-36.508 66.752-66.752 36.508 66.752 36.508zM421.21 174.521l30.851-56.41 56.41-30.85-56.41-30.851L421.21 0l-30.851 56.41-56.41 30.851 56.41 30.85zM421.21 232l-30.851 56.41-56.41 30.851 56.41 30.85 30.851 56.41 30.851-56.41 56.41-30.85-56.41-30.851z">
			</path>
		</g>
	</symbol>
	<symbol id="solid-comment" xmlns="http://www.w3.org/2000/svg" version="1.1" xmlns:xlink="http://www.w3.org/1999/xlink" x="0" y="0" viewBox="0 0 24 24">
		<g>
			<path fill-rule="evenodd" d="M4 1a3 3 0 0 0-3 3v11a3 3 0 0 0 3 3h1v3.586a1.414 1.414 0 0 0 2.414 1L12 18h8a3 3 0 0 0 3-3V4a3 3 0 0 0-3-3zm8 10a1.5 1.5 0 1 0 0-3 1.5 1.5 0 0 0 0 3zM8 9.5a1.5 1.5 0 1 1-3 0 1.5 1.5 0 0 1 3 0zm9.5 1.5a1.5 1.5 0 1 0 0-3 1.5 1.5 0 0 0 0 3z" clip-rule="evenodd" opacity="1">
			</path>
		</g>
	</symbol>
	<symbol id="solid-dollar" xmlns="http://www.w3.org/2000/svg" version="1.1" xmlns:xlink="http://www.w3.org/1999/xlink" x="0" y="0" viewBox="0 0 484.184 484.184">
		<g>
			<path d="M309.43 219.944c-19-10.5-39.2-18.5-59.2-26.8-11.6-4.8-22.7-10.4-32.5-18.2-19.3-15.4-15.6-40.4 7-50.3 6.4-2.8 13.1-3.7 19.9-4.1 26.2-1.4 51.1 3.4 74.8 14.8 11.8 5.7 15.7 3.9 19.7-8.4 4.2-13 7.7-26.2 11.6-39.3 2.6-8.8-.6-14.6-8.9-18.3-15.2-6.7-30.8-11.5-47.2-14.1-21.4-3.3-21.4-3.4-21.5-24.9-.1-30.3-.1-30.3-30.5-30.3-4.4 0-8.8-.1-13.2 0-14.2.4-16.6 2.9-17 17.2-.2 6.4 0 12.8-.1 19.3-.1 19-.2 18.7-18.4 25.3-44 16-71.2 46-74.1 94-2.6 42.5 19.6 71.2 54.5 92.1 21.5 12.9 45.3 20.5 68.1 30.6 8.9 3.9 17.4 8.4 24.8 14.6 21.9 18.1 17.9 48.2-8.1 59.6-13.9 6.1-28.6 7.6-43.7 5.7-23.3-2.9-45.6-9-66.6-19.9-12.3-6.4-15.9-4.7-20.1 8.6-3.6 11.5-6.8 23.1-10 34.7-4.3 15.6-2.7 19.3 12.2 26.6 19 9.2 39.3 13.9 60 17.2 16.2 2.6 16.7 3.3 16.9 20.1.1 7.6.1 15.3.2 22.9.1 9.6 4.7 15.2 14.6 15.4 11.2.2 22.5.2 33.7-.1 9.2-.2 13.9-5.2 13.9-14.5 0-10.4.5-20.9.1-31.3-.5-10.6 4.1-16 14.3-18.8 23.5-6.4 43.5-19 58.9-37.8 42.8-52 26.5-128.1-34.1-161.6z">
			</path>
		</g>
	</symbol>
	<symbol id="solid-envelope" xmlns="http://www.w3.org/2000/svg" version="1.1" xmlns:xlink="http://www.w3.org/1999/xlink" x="0" y="0" viewBox="0 0 525 525">
		<g>
			<path d="M298.789 313.693c-12.738 8.492-27.534 12.981-42.789 12.981-15.254 0-30.05-4.489-42.788-12.981L3.409 173.82A76.269 76.269 0 0 1 0 171.403V400.6c0 26.278 21.325 47.133 47.133 47.133h417.733c26.278 0 47.133-21.325 47.133-47.133V171.402a75.21 75.21 0 0 1-3.416 2.422z">
			</path>
			<path d="m20.05 148.858 209.803 139.874c7.942 5.295 17.044 7.942 26.146 7.942 9.103 0 18.206-2.648 26.148-7.942L491.95 148.858c12.555-8.365 20.05-22.365 20.05-37.475 0-25.981-21.137-47.117-47.117-47.117H47.117C21.137 64.267 0 85.403 0 111.408a44.912 44.912 0 0 0 20.05 37.45z">
			</path>
		</g>
	</symbol>
	<symbol id="solid-click-alt" xmlns="http://www.w3.org/2000/svg" version="1.1" xmlns:xlink="http://www.w3.org/1999/xlink" x="0" y="0" viewBox="0 0 32 32">
		<g>
			<path d="M31.371 17.433 10.308 9.008c-.775-.31-1.629.477-1.3 1.3l8.426 21.064c.346.866 1.633.797 1.89-.098l2.654-9.295 9.296-2.656c.895-.255.96-1.544.097-1.89zM4.324 2.91A1 1 0 1 0 2.91 4.326L5.72 7.133c.195.195.45.293.706.293.875 0 1.328-1.088.708-1.707zM13.447 7.422a.998.998 0 0 0 .707-.29l2.809-2.807a1 1 0 1 0-1.414-1.414L12.74 5.719c-.616.616-.157 1.704.707 1.703zM5.719 12.74 2.91 15.548c-.612.612-.154 1.707.707 1.707a.997.997 0 0 0 .707-.293l2.809-2.808a1 1 0 1 0-1.414-1.414zM5.56 9.937a1 1 0 0 0-1-1H1a1 1 0 1 0 0 2h3.56a1 1 0 0 0 1-1zM9.937 5.56a1 1 0 0 0 1-1V1a1 1 0 1 0-2 0v3.56a1 1 0 0 0 1 1z">
			</path>
		</g>
	</symbol>
	<symbol id="solid-reply" xmlns="http://www.w3.org/2000/svg" version="1.1" xmlns:xlink="http://www.w3.org/1999/xlink" x="0" y="0" viewBox="0 0 24 24">
		<g>
			<path d="M10 7.002V2.75a.748.748 0 0 0-1.272-.538l-8.5 8.25a.747.747 0 0 0 0 1.076l8.5 8.25c.217.21.539.269.814.153A.752.752 0 0 0 10 19.25V15h1.418c4.636 0 8.91 2.52 11.153 6.572l.021.038A.75.75 0 0 0 24 21.25c0-7.774-6.257-14.114-14-14.248z">
			</path>
		</g>
	</symbol>
	<symbol id="solid-link" xmlns="http://www.w3.org/2000/svg" version="1.1" xmlns:xlink="http://www.w3.org/1999/xlink" viewBox="0 0 24 24">
		<g>
			<path d="M7.835 16.17a6.478 6.478 0 0 1-.641-.748 1 1 0 0 1 1.617-1.178c.129.178.274.349.437.511.803.803 1.87 1.245 3.005 1.245s2.203-.442 3.005-1.245l5.5-5.5c1.657-1.657 1.657-4.354 0-6.011s-4.354-1.657-6.011 0l-1.058 1.058a.999.999 0 1 1-1.414-1.414l1.058-1.058a6.255 6.255 0 0 1 8.839 0 6.257 6.257 0 0 1 0 8.839l-5.5 5.5C15.492 17.35 13.922 18 12.253 18s-3.239-.65-4.418-1.83ZM6.253 24c1.67 0 3.239-.65 4.419-1.831l1.058-1.058a.999.999 0 1 0-1.414-1.414l-1.059 1.058C8.454 21.558 7.387 22 6.252 22s-2.202-.442-3.005-1.245-1.245-1.87-1.245-3.005.442-2.203 1.245-3.005l5.5-5.5C9.55 8.442 10.617 8 11.752 8s2.203.442 3.005 1.245c.16.161.306.332.436.51a1 1 0 1 0 1.618-1.176 6.247 6.247 0 0 0-.639-.747C14.991 6.65 13.421 6 11.752 6s-3.239.65-4.419 1.831l-5.499 5.5A6.206 6.206 0 0 0 .003 17.75c0 1.669.65 3.239 1.831 4.419A6.205 6.205 0 0 0 6.253 24Z">
			</path>
		</g>
	</symbol>
	<symbol id="solid-cloud-download" xmlns="http://www.w3.org/2000/svg" version="1.1" xmlns:xlink="http://www.w3.org/1999/xlink" x="0" y="0" viewBox="0 0 24 24">
		<g>
			<path d="M17.974 7.146a1.028 1.028 0 0 1-.742-.569c-1.552-3.271-5.143-5.1-8.735-4.438A7.946 7.946 0 0 0 2.113 8.64a8.13 8.13 0 0 0 .033 2.89c.06.309-.073.653-.346.901a5.51 5.51 0 0 0-1.801 4.07c0 3.032 2.467 5.5 5.5 5.5h11c4.136 0 7.5-3.364 7.5-7.5 0-3.565-2.534-6.658-6.026-7.354Zm-2.853 7.562-2.707 2.707a1.993 1.993 0 0 1-1.405.584l-.009.002-.009-.002a1.993 1.993 0 0 1-1.405-.584l-2.707-2.707a.999.999 0 1 1 1.414-1.414L10 15.001v-5a1 1 0 1 1 2 0v5l1.707-1.707a.999.999 0 1 1 1.414 1.414Z">
			</path>
		</g>
	</symbol>
	<symbol id="outline-dashboard" viewBox="0 0 20 20" xmlns="http://www.w3.org/2000/svg">
		<path fill-rule="evenodd" clip-rule="evenodd" d="M1.99951 1.74988C1.86144 1.74988 1.74951 1.86181 1.74951 1.99988V5.99988C1.74951 6.13795 1.86144 6.24988 1.99951 6.24988H5.99951C6.13758 6.24988 6.24951 6.13795 6.24951 5.99988V1.99988C6.24951 1.86181 6.13758 1.74988 5.99951 1.74988H1.99951ZM0.249512 1.99988C0.249512 1.03338 1.03301 0.249878 1.99951 0.249878H5.99951C6.96601 0.249878 7.74951 1.03338 7.74951 1.99988V5.99988C7.74951 6.96638 6.96601 7.74988 5.99951 7.74988H1.99951C1.03301 7.74988 0.249512 6.96638 0.249512 5.99988V1.99988Z" />
		<path fill-rule="evenodd" clip-rule="evenodd" d="M11.9995 1.74988C11.8614 1.74988 11.7495 1.86181 11.7495 1.99988V5.99988C11.7495 6.13795 11.8614 6.24988 11.9995 6.24988H15.9995C16.1376 6.24988 16.2495 6.13795 16.2495 5.99988V1.99988C16.2495 1.86181 16.1376 1.74988 15.9995 1.74988H11.9995ZM10.2495 1.99988C10.2495 1.03338 11.033 0.249878 11.9995 0.249878H15.9995C16.966 0.249878 17.7495 1.03338 17.7495 1.99988V5.99988C17.7495 6.96638 16.966 7.74988 15.9995 7.74988H11.9995C11.033 7.74988 10.2495 6.96638 10.2495 5.99988V1.99988Z" />
		<path fill-rule="evenodd" clip-rule="evenodd" d="M1.99951 11.7499C1.86144 11.7499 1.74951 11.8618 1.74951 11.9999V15.9999C1.74951 16.1379 1.86144 16.2499 1.99951 16.2499H5.99951C6.13758 16.2499 6.24951 16.1379 6.24951 15.9999V11.9999C6.24951 11.8618 6.13758 11.7499 5.99951 11.7499H1.99951ZM0.249512 11.9999C0.249512 11.0334 1.03301 10.2499 1.99951 10.2499H5.99951C6.96601 10.2499 7.74951 11.0334 7.74951 11.9999V15.9999C7.74951 16.9664 6.96601 17.7499 5.99951 17.7499H1.99951C1.03301 17.7499 0.249512 16.9664 0.249512 15.9999V11.9999Z" />
		<path fill-rule="evenodd" clip-rule="evenodd" d="M11.9995 11.7499C11.8614 11.7499 11.7495 11.8618 11.7495 11.9999V15.9999C11.7495 16.1379 11.8614 16.2499 11.9995 16.2499H15.9995C16.1376 16.2499 16.2495 16.1379 16.2495 15.9999V11.9999C16.2495 11.8618 16.1376 11.7499 15.9995 11.7499H11.9995ZM10.2495 11.9999C10.2495 11.0334 11.033 10.2499 11.9995 10.2499H15.9995C16.966 10.2499 17.7495 11.0334 17.7495 11.9999V15.9999C17.7495 16.9664 16.966 17.7499 15.9995 17.7499H11.9995C11.033 17.7499 10.2495 16.9664 10.2495 15.9999V11.9999Z" />
	</symbol>
	<symbol id="outline-bell" viewBox="0 0 18 20" fill="none" xmlns="http://www.w3.org/2000/svg">
		<path d="M1.45549 11.88L0.883926 11.3944H0.883926L1.45549 11.88ZM2.33476 9.8385L1.58953 9.75408L2.33476 9.8385ZM15.6652 9.8385L16.4105 9.75408L15.6652 9.8385ZM16.5445 11.88L17.1161 11.3944L16.5445 11.88ZM15.3204 6.79403L14.5751 6.87846V6.87846L15.3204 6.79403ZM2.67964 6.79403L3.42487 6.87846L2.67964 6.79403ZM12.7023 17.2632C12.8477 16.8753 12.6511 16.4431 12.2632 16.2977C11.8753 16.1523 11.4431 16.3489 11.2977 16.7368L12.7023 17.2632ZM6.7023 16.7368C6.55694 16.3489 6.12467 16.1523 5.7368 16.2977C5.34893 16.4431 5.15234 16.8753 5.2977 17.2632L6.7023 16.7368ZM15.1699 14.25H2.83014V15.75H15.1699V14.25ZM14.5751 6.87846L14.92 9.92292L16.4105 9.75408L16.0656 6.70961L14.5751 6.87846ZM3.07999 9.92292L3.42487 6.87846L1.9344 6.70961L1.58953 9.75408L3.07999 9.92292ZM2.02706 12.3657C2.61173 11.6775 2.97775 10.8255 3.07999 9.92292L1.58953 9.75408C1.52038 10.3645 1.2732 10.9363 0.883926 11.3944L2.02706 12.3657ZM14.92 9.92292C15.0223 10.8255 15.3883 11.6775 15.9729 12.3657L17.1161 11.3944C16.7268 10.9363 16.4796 10.3645 16.4105 9.75408L14.92 9.92292ZM2.83014 14.25C1.94335 14.25 1.37926 13.1281 2.02706 12.3657L0.883926 11.3944C-0.535086 13.0647 0.57828 15.75 2.83014 15.75V14.25ZM15.1699 15.75C17.4217 15.75 18.5351 13.0647 17.1161 11.3944L15.9729 12.3657C16.6207 13.1281 16.0567 14.25 15.1699 14.25V15.75ZM16.0656 6.70961C15.6504 3.04473 12.6279 0.25 9 0.25V1.75C11.8302 1.75 14.2419 3.93698 14.5751 6.87846L16.0656 6.70961ZM3.42487 6.87846C3.75808 3.93698 6.16977 1.75 9 1.75V0.25C5.37212 0.25 2.34956 3.04473 1.9344 6.70961L3.42487 6.87846ZM11.2977 16.7368C10.975 17.5979 10.0846 18.25 9 18.25V19.75C10.6855 19.75 12.1516 18.7325 12.7023 17.2632L11.2977 16.7368ZM9 18.25C7.91542 18.25 7.02502 17.5979 6.7023 16.7368L5.2977 17.2632C5.84835 18.7325 7.31452 19.75 9 19.75V18.25Z" fill="#0F172A" />
	</symbol>
	<symbol id="outline-user" xmlns="http://www.w3.org/2000/svg" version="1.1" xmlns:xlink="http://www.w3.org/1999/xlink" viewBox="0 0 24 24">
		<g>
			<path d="M12 0C5.383 0 0 5.383 0 12s5.383 12 12 12 12-5.383 12-12S18.617 0 12 0ZM8 21.164V21c0-2.206 1.794-4 4-4s4 1.794 4 4v.164c-1.226.537-2.578.836-4 .836s-2.774-.299-4-.836Zm9.925-1.113C17.469 17.192 14.986 15 12 15s-5.468 2.192-5.925 5.051A9.993 9.993 0 0 1 2 12C2 6.486 6.486 2 12 2s10 4.486 10 10a9.993 9.993 0 0 1-4.075 8.051ZM12 5C9.794 5 8 6.794 8 9s1.794 4 4 4 4-1.794 4-4-1.794-4-4-4Zm0 6c-1.103 0-2-.897-2-2s.897-2 2-2 2 .897 2 2-.897 2-2 2Z">
			</path>
		</g>
	</symbol>
	<symbol id="outline-csv" xmlns="http://www.w3.org/2000/svg" version="1.1" xmlns:xlink="http://www.w3.org/1999/xlink" xmlns:svgjs="http://svgjs.com/svgjs" x="0" y="0" viewBox="0 0 548.29 548.291">
		<g>
			<g>
				<path d="M486.2,196.121h-13.164V132.59c0-0.399-0.064-0.795-0.116-1.2c-0.021-2.52-0.824-5-2.551-6.96L364.656,3.677
		c-0.031-0.034-0.064-0.044-0.085-0.075c-0.629-0.707-1.364-1.292-2.141-1.796c-0.231-0.157-0.462-0.286-0.704-0.419
		c-0.672-0.365-1.386-0.672-2.121-0.893c-0.199-0.052-0.377-0.134-0.576-0.188C358.229,0.118,357.4,0,356.562,0H96.757
		C84.893,0,75.256,9.649,75.256,21.502v174.613H62.093c-16.972,0-30.733,13.756-30.733,30.73v159.81
		c0,16.966,13.761,30.736,30.733,30.736h13.163V526.79c0,11.854,9.637,21.501,21.501,21.501h354.777
		c11.853,0,21.502-9.647,21.502-21.501V417.392H486.2c16.966,0,30.729-13.764,30.729-30.731v-159.81
		C516.93,209.872,503.166,196.121,486.2,196.121z M96.757,21.502h249.053v110.006c0,5.94,4.818,10.751,10.751,10.751h94.973v53.861
		H96.757V21.502z M258.618,313.18c-26.68-9.291-44.063-24.053-44.063-47.389c0-27.404,22.861-48.368,60.733-48.368
		c18.107,0,31.447,3.811,40.968,8.107l-8.09,29.3c-6.43-3.107-17.862-7.632-33.59-7.632c-15.717,0-23.339,7.149-23.339,15.485
		c0,10.247,9.047,14.769,29.78,22.632c28.341,10.479,41.681,25.239,41.681,47.874c0,26.909-20.721,49.786-64.792,49.786
		c-18.338,0-36.449-4.776-45.497-9.77l7.38-30.016c9.772,5.014,24.775,10.006,40.264,10.006c16.671,0,25.488-6.908,25.488-17.396
		C285.536,325.789,277.909,320.078,258.618,313.18z M69.474,302.692c0-54.781,39.074-85.269,87.654-85.269
		c18.822,0,33.113,3.811,39.549,7.149l-7.392,28.816c-7.38-3.084-17.632-5.939-30.491-5.939c-28.822,0-51.206,17.375-51.206,53.099
		c0,32.158,19.051,52.4,51.456,52.4c10.947,0,23.097-2.378,30.241-5.238l5.483,28.346c-6.672,3.34-21.674,6.919-41.208,6.919
		C98.06,382.976,69.474,348.424,69.474,302.692z M451.534,520.962H96.757v-103.57h354.777V520.962z M427.518,380.583h-42.399
		l-51.45-160.536h39.787l19.526,67.894c5.479,19.046,10.479,37.386,14.299,57.397h0.709c4.048-19.298,9.045-38.352,14.526-56.693
		l20.487-68.598h38.599L427.518,380.583z">
				</path>
			</g>
		</g>
	</symbol>
	<symbol id="outline-copy" xmlns="http://www.w3.org/2000/svg" version="1.1" xmlns:xlink="http://www.w3.org/1999/xlink" x="0" y="0" viewBox="0 0 24 24">
		<g>
			<path d="M5.452 22h9.096c1.748 0 3.182-1.312 3.406-3h.594A3.456 3.456 0 0 0 22 15.548V5.452A3.456 3.456 0 0 0 18.548 2H9.452A3.456 3.456 0 0 0 6 5.452V6h-.548A3.456 3.456 0 0 0 2 9.452v9.096A3.456 3.456 0 0 0 5.452 22zM8 5.452C8 4.652 8.651 4 9.452 4h9.096c.8 0 1.452.651 1.452 1.452v10.096c0 .8-.651 1.452-1.452 1.452H18V9.452A3.456 3.456 0 0 0 14.548 6H8zm-4 4C4 8.652 4.651 8 5.452 8h9.096c.8 0 1.452.651 1.452 1.452v9.096c0 .8-.651 1.452-1.452 1.452H5.452C4.652 20 4 19.349 4 18.548z">
			</path>
		</g>
	</symbol>
	<symbol id="outline-dashboard" xmlns="http://www.w3.org/2000/svg" version="1.1" xmlns:xlink="http://www.w3.org/1999/xlink" x="0" y="0" viewBox="0 0 24 24">
		<g>
			<path d="M7 0H4a4 4 0 0 0-4 4v3a4 4 0 0 0 4 4h3a4 4 0 0 0 4-4V4a4 4 0 0 0-4-4Zm2 7a2 2 0 0 1-2 2H4a2 2 0 0 1-2-2V4a2 2 0 0 1 2-2h3a2 2 0 0 1 2 2ZM20 0h-3a4 4 0 0 0-4 4v3a4 4 0 0 0 4 4h3a4 4 0 0 0 4-4V4a4 4 0 0 0-4-4Zm2 7a2 2 0 0 1-2 2h-3a2 2 0 0 1-2-2V4a2 2 0 0 1 2-2h3a2 2 0 0 1 2 2ZM7 13H4a4 4 0 0 0-4 4v3a4 4 0 0 0 4 4h3a4 4 0 0 0 4-4v-3a4 4 0 0 0-4-4Zm2 7a2 2 0 0 1-2 2H4a2 2 0 0 1-2-2v-3a2 2 0 0 1 2-2h3a2 2 0 0 1 2 2ZM20 13h-3a4 4 0 0 0-4 4v3a4 4 0 0 0 4 4h3a4 4 0 0 0 4-4v-3a4 4 0 0 0-4-4Zm2 7a2 2 0 0 1-2 2h-3a2 2 0 0 1-2-2v-3a2 2 0 0 1 2-2h3a2 2 0 0 1 2 2Z">
			</path>
		</g>
	</symbol>
	<symbol id="outline-bell" xmlns="http://www.w3.org/2000/svg" version="1.1" xmlns:xlink="http://www.w3.org/1999/xlink" viewBox="0 0 24 24">
		<g>
			<path d="m23.259 16.2-2.6-9.371A9.321 9.321 0 0 0 2.576 7.3L.565 16.35A3 3 0 0 0 3.493 20H7.1a5 5 0 0 0 9.8 0h3.47a3 3 0 0 0 2.89-3.8ZM12 22a3 3 0 0 1-2.816-2h5.632A3 3 0 0 1 12 22Zm9.165-4.395a.993.993 0 0 1-.8.395H3.493a1 1 0 0 1-.976-1.217l2.011-9.05a7.321 7.321 0 0 1 14.2-.372l2.6 9.371a.993.993 0 0 1-.163.873Z">
			</path>
		</g>
	</symbol>
	<symbol id="outline-eye-close" xmlns="http://www.w3.org/2000/svg" version="1.1" xmlns:xlink="http://www.w3.org/1999/xlink" x="0" y="0" viewBox="0 0 24 24">
		<g>
			<path d="M23.821 11.181a15.736 15.736 0 0 0-4.145-5.44l3.032-3.032-1.415-1.416L18 4.583A11.783 11.783 0 0 0 12 3C4.5 3 1.057 9.261.179 11.181a1.969 1.969 0 0 0 0 1.64 15.736 15.736 0 0 0 4.145 5.44l-3.031 3.032 1.414 1.414L6 19.417A11.783 11.783 0 0 0 12 21c7.5 0 10.943-6.261 11.821-8.181a1.968 1.968 0 0 0 0-1.638ZM2 12.011C2.75 10.366 5.693 5 12 5a9.847 9.847 0 0 1 4.518 1.068l-1.765 1.765a4.992 4.992 0 0 0-6.92 6.92l-2.079 2.079A13.647 13.647 0 0 1 2 12.011ZM15 12a3 3 0 0 1-3 3 2.951 2.951 0 0 1-1.285-.3l3.985-3.985A2.951 2.951 0 0 1 15 12Zm-6 0a3 3 0 0 1 3-3 2.951 2.951 0 0 1 1.285.3L9.3 13.285A2.951 2.951 0 0 1 9 12Zm3 7a9.847 9.847 0 0 1-4.518-1.068l1.765-1.765a4.992 4.992 0 0 0 6.92-6.92l2.078-2.078A13.584 13.584 0 0 1 22 12c-.764 1.657-3.708 7-10 7Z">
			</path>
		</g>
	</symbol>
	<symbol id="outline-eye-open" xmlns="http://www.w3.org/2000/svg" version="1.1" xmlns:xlink="http://www.w3.org/1999/xlink" x="0" y="0" viewBox="0 0 24 24">
		<g>
			<g data-name="01 align center">
				<path d="M23.821 11.181C22.943 9.261 19.5 3 12 3S1.057 9.261.179 11.181a1.969 1.969 0 0 0 0 1.64C1.057 14.739 4.5 21 12 21s10.943-6.261 11.821-8.181a1.968 1.968 0 0 0 0-1.638ZM12 19c-6.307 0-9.25-5.366-10-6.989C2.75 10.366 5.693 5 12 5c6.292 0 9.236 5.343 10 7-.764 1.657-3.708 7-10 7Z">
				</path>
				<path d="M12 7a5 5 0 1 0 5 5 5.006 5.006 0 0 0-5-5Zm0 8a3 3 0 1 1 3-3 3 3 0 0 1-3 3Z">
				</path>
			</g>
		</g>
	</symbol>
</svg>
