<svg>
	<symbol id="hamburger" xmlns="http://www.w3.org/2000/svg" version="1.1" xmlns:xlink="http://www.w3.org/1999/xlink" xmlns:svgjs="http://svgjs.com/svgjs" viewBox="0 0 32 32">
		<g>
			<g xmlns="http://www.w3.org/2000/svg">
				<path d="m29 8h-26c-1.1045 0-2-.8955-2-2s.8955-2 2-2h26c1.1045 0 2 .8955 2 2s-.8955 2-2 2z">
				</path>
				<path d="m29 28h-26c-1.1045 0-2-.8955-2-2s.8955-2 2-2h26c1.1045 0 2 .8955 2 2s-.8955 2-2 2z">
				</path>
				<path d="m29 18h-26c-1.1045 0-2-.8955-2-2s.8955-2 2-2h26c1.1045 0 2 .8955 2 2s-.8955 2-2 2z">
				</path>
			</g>
		</g>
	</symbol>
	<symbol id="solid-thumbsup" xmlns="http://www.w3.org/2000/svg" version="1.1" xmlns:xlink="http://www.w3.org/1999/xlink" xmlns:svgjs="http://svgjs.com/svgjs" x="0" y="0" viewBox="0 0 512 512" xml:space="preserve" class="">
		<g>
			<path d="M0 173.34h120v316.72H0zM501.092 305.717c0-11.425-3.791-21.98-10.179-30.478C503.675 265.994 512 250.983 512 234.058c0-28.027-22.803-50.829-50.83-50.829H345.625l16.08-55.543v-26.613c0-49.039-39.897-88.936-88.936-88.936-11.891 0-21.564 9.674-21.564 21.564v59c-8.019 12.834-52.551 62.804-101.205 115.158v262.49l41.518 15.569a218.295 218.295 0 0 0 76.909 13.946h160.019c28.027 0 50.829-22.803 50.829-50.83a50.564 50.564 0 0 0-10.169-30.469c12.76-9.244 21.077-24.265 21.077-41.19 0-11.425-3.791-21.98-10.178-30.478 12.762-9.242 21.087-24.253 21.087-41.18z">
			</path>
		</g>
	</symbol>
	<symbol id="solid-clock" xmlns="http://www.w3.org/2000/svg" version="1.1" xmlns:xlink="http://www.w3.org/1999/xlink" xmlns:svgjs="http://svgjs.com/svgjs" x="0" y="0" viewBox="0 0 347.442 351.442">
		<g>
			<path d="M173.721 347.442c95.919 0 173.721-77.802 173.721-173.721S269.64 0 173.721 0 0 77.802 0 173.721s77.802 173.721 173.721 173.721zm-12.409-272.99c0-6.825 5.584-12.409 12.409-12.409s12.409 5.584 12.409 12.409v93.313l57.39 45.912c5.336 4.281 6.204 12.098 1.923 17.434a12.342 12.342 0 0 1-9.679 4.653c-2.73 0-5.46-.869-7.755-2.73L165.966 183.4c-2.916-2.358-4.653-5.894-4.653-9.679V74.452z">
			</path>
		</g>
	</symbol>
	<symbol id="solid-lock" xmlns="http://www.w3.org/2000/svg" version="1.1" xmlns:xlink="http://www.w3.org/1999/xlink" xmlns:svgjs="http://svgjs.com/svgjs" x="0" y="0" viewBox="0 0 401.998 401.998">
		<g>
			<path d="M357.45 190.721c-5.331-5.33-11.8-7.993-19.417-7.993h-9.131v-54.821c0-35.022-12.559-65.093-37.685-90.218C266.093 12.563 236.025 0 200.998 0c-35.026 0-65.1 12.563-90.222 37.688-25.126 25.126-37.685 55.196-37.685 90.219v54.821h-9.135c-7.611 0-14.084 2.663-19.414 7.993-5.33 5.326-7.994 11.799-7.994 19.417V374.59c0 7.611 2.665 14.086 7.994 19.417 5.33 5.325 11.803 7.991 19.414 7.991H338.04c7.617 0 14.085-2.663 19.417-7.991 5.325-5.331 7.994-11.806 7.994-19.417V210.135c.004-7.612-2.669-14.084-8.001-19.414zm-83.363-7.993H127.909v-54.821c0-20.175 7.139-37.402 21.414-51.675 14.277-14.275 31.501-21.411 51.678-21.411 20.179 0 37.399 7.135 51.677 21.411 14.271 14.272 21.409 31.5 21.409 51.675v54.821z">
			</path>
		</g>
	</symbol>
	<symbol id="solid-chevron-down" xmlns="http://www.w3.org/2000/svg" version="1.1" xmlns:xlink="http://www.w3.org/1999/xlink" xmlns:svgjs="http://svgjs.com/svgjs" x="0" y="0" viewBox="0 0 58.026 58.026">
		<g>
			<path d="M29.013 46.019c-1.1 0-2.1-.4-2.9-1.2l-25-26c-1.5-1.6-1.5-4.1.1-5.7 1.6-1.5 4.1-1.5 5.7.1l22.1 23 22.1-23c1.5-1.6 4.1-1.6 5.7-.1s1.6 4.1.1 5.7l-25 26c-.8.8-1.8 1.2-2.9 1.2z">
			</path>
		</g>
	</symbol>
	<symbol id="solid-glass" xmlns="http://www.w3.org/2000/svg" version="1.1" xmlns:xlink="http://www.w3.org/1999/xlink" xmlns:svgjs="http://svgjs.com/svgjs" x="0" y="0" viewBox="0 0 409.585 409.585" xml:space="preserve" class="">
		<g>
			<path d="M255.992 375.434h-34.135V237.435c48.42-8.131 85.335-50.135 85.335-100.869 0-48.364-9.748-94.464-27.233-136.566H129.626c-17.485 42.102-27.233 88.202-27.233 136.566 0 50.734 36.915 92.739 85.335 100.869v138.02h-34.135c-18.852 0-34.135 15.278-34.135 34.13l170.67-.02c-.001-18.848-15.284-34.131-34.136-34.131z">
			</path>
		</g>
	</symbol>
	<symbol id="solid-user" xmlns="http://www.w3.org/2000/svg" version="1.1" xmlns:xlink="http://www.w3.org/1999/xlink" xmlns:svgjs="http://svgjs.com/svgjs" x="0" y="0" viewBox="0 0 512 512">
		<g>
			<path d="M256 0c-74.439 0-135 60.561-135 135s60.561 135 135 135 135-60.561 135-135S330.439 0 256 0zM423.966 358.195C387.006 320.667 338.009 300 286 300h-60c-52.008 0-101.006 20.667-137.966 58.195C51.255 395.539 31 444.833 31 497c0 8.284 6.716 15 15 15h420c8.284 0 15-6.716 15-15 0-52.167-20.255-101.461-57.034-138.805z">
			</path>
		</g>
	</symbol>
	<symbol id="solid-play" xmlns="http://www.w3.org/2000/svg" version="1.1" xmlns:xlink="http://www.w3.org/1999/xlink" xmlns:svgjs="http://svgjs.com/svgjs" x="0" y="0" viewBox="0 0 163.861 163.861">
		<g>
			<path d="M34.857 3.613C20.084-4.861 8.107 2.081 8.107 19.106v125.637c0 17.042 11.977 23.975 26.75 15.509L144.67 97.275c14.778-8.477 14.778-22.211 0-30.686L34.857 3.613z">
			</path>
		</g>
	</symbol>
	<symbol id="solid-paperplane" xmlns="http://www.w3.org/2000/svg" version="1.1" xmlns:xlink="http://www.w3.org/1999/xlink" xmlns:svgjs="http://svgjs.com/svgjs" x="0" y="0" viewBox="0 0 24 24">
		<g>
			<path d="M8.75 17.612v4.638a.751.751 0 0 0 1.354.444l2.713-3.692zM23.685.139a.75.75 0 0 0-.782-.054l-22.5 11.75a.752.752 0 0 0 .104 1.375l6.255 2.138 13.321-11.39L9.775 16.377l10.483 3.583a.753.753 0 0 0 .984-.599l2.75-18.5a.751.751 0 0 0-.307-.722z">
			</path>
		</g>
	</symbol>
	<symbol id="cross" xmlns="http://www.w3.org/2000/svg" version="1.1" xmlns:xlink="http://www.w3.org/1999/xlink" xmlns:svgjs="http://svgjs.com/svgjs" x="0" y="0" viewBox="0 0 512 512">
		<g>
			<g xmlns="http://www.w3.org/2000/svg" id="_02_User" data-name="02 User">
				<path d="m25 512a25 25 0 0 1 -17.68-42.68l462-462a25 25 0 0 1 35.36 35.36l-462 462a24.93 24.93 0 0 1 -17.68 7.32z">
				</path>
				<path d="m487 512a24.93 24.93 0 0 1 -17.68-7.32l-462-462a25 25 0 0 1 35.36-35.36l462 462a25 25 0 0 1 -17.68 42.68z">
				</path>
			</g>
		</g>
	</symbol>
</svg>
