<svg xmlns="http://www.w3.org/2000/svg" version="1.1" xmlns:xlink="http://www.w3.org/1999/xlink" viewBox="0 0 24 24">
	<g>
		<path d="M23.1.9a3.139 3.139 0 0 0-4.33 0L7.563 12.1a5.548 5.548 0 0 0-1.058-.1 5.457 5.457 0 0 0-3.885 1.609C.7 15.533.186 21.628.1 22.83l-.076 1.146 1.145-.08c1.2-.082 7.3-.593 9.222-2.516a5.494 5.494 0 0 0 1.5-4.941L23.1 5.23a3.068 3.068 0 0 0 0-4.33zM8.977 19.966c-.93.929-4.267 1.56-6.774 1.83.283-2.6.943-5.884 1.831-6.773a3.5 3.5 0 0 1 4.943 4.943zm12.711-16.15L11.067 14.438a5.378 5.378 0 0 0-1.5-1.508L20.184 2.312a1.086 1.086 0 0 1 1.5 0 1.062 1.062 0 0 1 .004 1.504z">
		</path>
	</g>
</svg>
